<svg width="254" height="218" viewBox="0 0 254 218" fill="none" xmlns="http://www.w3.org/2000/svg">
<path d="M202.04 181.208C202.564 181.547 203 182.005 203.312 182.545C203.625 183.084 203.805 183.69 203.838 184.313C203.838 185.458 203.023 185.916 202.033 185.344L185.688 175.915C185.164 175.575 184.728 175.116 184.416 174.575C184.103 174.034 183.923 173.427 183.89 172.804C183.89 171.665 184.705 171.201 185.695 171.773L202.04 181.208Z" fill="#FF5A5A"/>
<g opacity="0.57">
<path opacity="0.57" d="M1.97326 78.1273C1.39965 78.5034 0.922294 79.0089 0.579579 79.6031C0.236864 80.1973 0.0383477 80.8637 0 81.5485L0.134697 128.018C0.134697 130.981 2.24939 132.193 4.8153 130.712L32.5285 114.771C33.102 114.395 33.5789 113.889 33.9206 113.295C34.2622 112.701 34.459 112.034 34.4951 111.35L34.3671 64.8802C34.3671 61.9169 32.2524 60.7047 29.6528 62.1863L1.97326 78.1273Z" fill="#FF5A5A"/>
</g>
<path d="M6.17288 98.7364L6.17249 98.7366C6.02948 98.82 5.92309 98.8149 5.85883 98.7777C5.79428 98.7403 5.73696 98.6501 5.73696 98.4863V96.0175C5.74802 95.8316 5.80244 95.6509 5.89589 95.4898C5.98936 95.3286 6.11928 95.1916 6.27522 95.0897L28.8543 82.0527L28.8547 82.0525C28.9977 81.969 29.1041 81.9741 29.1683 82.0114C29.2329 82.0488 29.2902 82.139 29.2902 82.3028V84.7653C29.2812 84.9526 29.2276 85.135 29.1341 85.2974C29.0405 85.4598 28.9096 85.5976 28.7522 85.6993L6.17288 98.7364Z" fill="white" stroke="#FF5A5A" stroke-width="0.2"/>
<path d="M28.8948 87.4001L28.8952 87.3999C29.0386 87.3162 29.1473 87.3197 29.2133 87.3569C29.2788 87.3937 29.3374 87.4834 29.3374 87.6502V90.1124C29.3272 90.3001 29.2725 90.4826 29.1779 90.645C29.0832 90.8075 28.9512 90.9451 28.7928 91.0466L6.22188 104.083C6.22161 104.083 6.22133 104.083 6.22105 104.083C6.07408 104.164 5.96511 104.159 5.89939 104.122C5.83457 104.085 5.77749 103.997 5.77749 103.834V101.365C5.78804 101.179 5.84223 100.998 5.93571 100.837C6.02921 100.676 6.15937 100.539 6.31564 100.437L28.8948 87.4001Z" fill="white" stroke="#FF5A5A" stroke-width="0.2"/>
<path d="M15.0522 104.393C14.6496 104.654 14.3146 105.007 14.0746 105.422C13.8346 105.838 13.6965 106.304 13.6716 106.783V107.349C13.6716 108.238 14.298 108.595 15.0657 108.151L22.3728 103.928C22.7778 103.665 23.1146 103.311 23.3558 102.893C23.597 102.475 23.7356 102.006 23.7602 101.524V100.958C23.7602 100.076 23.1339 99.7187 22.3594 100.163L15.0522 104.393Z" fill="#FF5A5A"/>
<path d="M97.6459 0.920975L97.4237 0.793015L97.1408 0.644851L96.858 0.510159L96.5819 0.395671L96.299 0.287913H96.2451L96.0363 0.227304C95.942 0.19321 95.8451 0.166195 95.7467 0.146486L95.4639 0.0791398L95.1608 0.00505786H94.9521H94.851C94.7411 -0.00168596 94.6309 -0.00168596 94.521 0.00505786C94.3999 -0.00166816 94.2785 -0.00166816 94.1574 0.00505786C94.0239 0.0181592 93.8913 0.0383897 93.76 0.0656675C93.6015 0.0939879 93.446 0.136823 93.2953 0.193628C93.0986 0.259689 92.9091 0.345433 92.7296 0.449549L88.1096 3.14342C88.4154 2.94631 88.7491 2.79646 89.0996 2.69893C89.4854 2.62367 89.8799 2.60327 90.2715 2.63832C90.7115 2.68512 91.1451 2.77997 91.5645 2.92118C92.0521 3.09991 92.5212 3.32545 92.9653 3.59465L222 78.5L227 75.5L223.955 74.026L97.6459 0.920975Z" fill="url(#paint0_linear_970_1430)"/>
<path d="M233.64 87.1452C233.64 87.0307 233.64 86.9162 233.64 86.8017C233.64 86.6872 233.64 86.5794 233.64 86.465L233.599 86.1215C233.599 86.007 233.599 85.8925 233.552 85.7713L233.492 85.4346C233.492 85.3133 233.445 85.1921 233.418 85.0709C233.391 84.9497 233.364 84.8284 233.33 84.7072C233.296 84.586 233.269 84.458 233.236 84.3368C233.202 84.2156 233.182 84.1482 233.148 84.0472C233.151 84.0271 233.151 84.0067 233.148 83.9866L233.034 83.6297C232.993 83.5084 232.953 83.3939 232.906 83.2727C232.859 83.1515 232.825 83.0437 232.778 82.9293C232.731 82.8148 232.69 82.707 232.643 82.5925C232.596 82.478 232.569 82.4241 232.535 82.3366V82.2827C232.488 82.1682 232.434 82.0537 232.38 81.946C232.327 81.8382 232.266 81.6968 232.205 81.5756C232.145 81.4543 232.064 81.2995 231.99 81.158L231.741 80.7203L231.7 80.6395L231.646 80.5519C231.478 80.2691 231.31 79.9929 231.128 79.7235C230.946 79.4541 230.838 79.2993 230.69 79.0972L230.38 78.6931L230.111 78.3564L229.842 78.0466L229.572 77.7435L229.512 77.6829C229.437 77.6088 229.37 77.5348 229.296 77.4674C229.222 77.4001 229.101 77.2721 229.006 77.1778L228.697 76.8882L228.387 76.6188L228.232 76.4909H228.198L228.077 76.3966L227.774 76.1609L227.471 75.9454L227.175 75.7501L226.878 75.5682L226.811 75.5278L222.191 78.2217C222.678 78.5033 223.142 78.8231 223.578 79.178H223.612C224.064 79.5467 224.492 79.9449 224.892 80.3701C225.729 81.2712 226.463 82.2629 227.08 83.3266L227.121 83.4007C227.423 83.9271 227.697 84.4688 227.942 85.0237C228.187 85.5802 228.396 86.1516 228.569 86.7343C228.742 87.2994 228.877 87.8754 228.973 88.4584C229.06 89.0177 229.105 89.5828 229.107 90.1488L228.858 178.326C228.858 178.83 228.811 179.333 228.717 179.828V179.868C228.636 180.291 228.505 180.703 228.326 181.094C228.182 181.382 228.006 181.653 227.801 181.902C227.734 181.983 227.673 182.07 227.606 182.138C227.385 182.385 227.128 182.599 226.845 182.771L231.465 180.077C231.748 179.907 232.004 179.696 232.226 179.451C232.3 179.377 232.354 179.289 232.421 179.208C232.509 179.109 232.592 179.006 232.67 178.898C232.767 178.744 232.855 178.585 232.933 178.42C232.987 178.306 233.034 178.191 233.081 178.063C233.129 177.945 233.17 177.823 233.202 177.7C233.202 177.585 233.269 177.464 233.296 177.343C233.3 177.291 233.3 177.239 233.296 177.188V177.147C233.296 177.1 233.296 177.053 233.296 176.999C233.296 176.945 233.33 176.784 233.344 176.669C233.357 176.555 233.344 176.447 233.384 176.333V176.003C233.384 175.895 233.384 175.78 233.384 175.666L233.633 87.4886C233.647 87.3539 233.647 87.2462 233.64 87.1452Z" fill="url(#paint1_linear_970_1430)"/>
<path d="M222.083 78.1274C225.928 80.3499 229.04 85.7309 229.026 90.1556L228.777 178.333C228.777 182.757 225.632 184.535 221.786 182.313L92.7296 107.794C88.8841 105.571 85.7727 100.19 85.7862 95.7655L86.0354 7.58835C86.0354 3.16366 89.1805 1.37897 93.026 3.60141L222.083 78.1274Z" fill="url(#paint2_linear_970_1430)"/>
<path d="M214.116 77.9186C217.652 79.939 220.514 84.9092 220.501 88.977L220.272 170.036C220.272 174.076 217.382 175.74 213.84 173.699L101.283 108.75C97.7408 106.73 94.8853 101.759 94.8987 97.6917L95.1614 16.633C95.1614 12.5922 98.0506 10.9287 101.586 12.9693L214.116 77.9186Z" fill="#F9FBFC"/>
<path d="M224.117 148.363C223.868 148.363 223.629 148.265 223.452 148.09C223.276 147.914 223.176 147.676 223.174 147.427V119.142C223.174 118.891 223.273 118.652 223.45 118.475C223.627 118.298 223.867 118.199 224.117 118.199C224.241 118.198 224.364 118.222 224.479 118.269C224.593 118.316 224.698 118.385 224.785 118.473C224.873 118.561 224.943 118.665 224.99 118.78C225.037 118.894 225.06 119.017 225.06 119.142V147.427C225.06 147.551 225.035 147.673 224.988 147.787C224.94 147.901 224.871 148.005 224.783 148.092C224.695 148.179 224.591 148.247 224.477 148.294C224.363 148.341 224.24 148.364 224.117 148.363Z" fill="#F9FBFC"/>
<path d="M90.1842 57.9233C90.7626 58.3004 91.2439 58.8085 91.5891 59.4064C91.9343 60.0044 92.1337 60.6753 92.1709 61.3648C92.1709 62.6309 91.2685 63.1427 90.1505 62.5096C89.5642 62.1365 89.0752 61.6292 88.7239 61.0296C88.3725 60.43 88.169 59.7554 88.1301 59.0615C88.184 57.7954 89.0999 57.2903 90.1842 57.9233Z" fill="white"/>
<path d="M167.572 69.8908C167.92 71.0254 168.168 72.1882 168.313 73.3659C168.398 74.036 168.441 74.7108 168.441 75.3863C168.441 75.5883 168.441 75.7904 168.441 75.9857V76.1069C168.441 76.2888 168.441 76.4706 168.401 76.6524C168.401 76.6861 168.401 76.7198 168.401 76.7534C168.401 76.9353 168.36 77.1104 168.333 77.2855C168.306 77.4606 168.266 77.6828 168.239 77.8512C168.212 78.0196 168.158 78.2216 168.118 78.3832V78.4641C168.071 78.6189 168.03 78.7738 167.983 78.922C167.983 78.922 167.983 78.9691 167.983 78.9961C167.936 79.151 167.882 79.2992 167.828 79.4406C167.774 79.582 167.694 79.7504 167.633 79.8783C167.567 80.0284 167.493 80.1745 167.411 80.3161L167.37 80.3902C167.305 80.5129 167.233 80.6321 167.155 80.7471C167.148 80.7673 167.136 80.7857 167.121 80.801C167.04 80.9222 166.959 81.0434 166.872 81.1512C166.784 81.2589 166.697 81.3734 166.603 81.4745L166.569 81.5216C166.475 81.6226 166.387 81.7169 166.293 81.8045L166.239 81.8583C166.145 81.9459 166.05 82.0334 165.949 82.1142L165.902 82.1479L165.599 82.3769L165.242 82.5991H165.182L164.845 82.7742L164.777 82.8079L164.42 82.9561L164.198 83.0302C164.158 78.7267 161.134 73.5343 157.41 71.3792C153.685 69.2241 150.581 70.9481 150.567 75.2718C150.567 75.2718 150.675 75.4536 150.877 75.7567L150.614 75.3863L150.217 74.8004L150.156 74.7061C150.035 74.5243 149.921 74.3424 149.806 74.1539L149.732 74.0326C149.618 73.8441 149.496 73.6488 149.389 73.4535C149.281 73.2581 149.16 73.0494 149.052 72.8541L148.991 72.7463C148.884 72.5532 148.783 72.3579 148.688 72.1604C148.668 72.1259 148.65 72.0899 148.634 72.0526L148.352 71.4869C148.23 71.231 148.143 71.029 148.055 70.8135C148.034 70.7743 148.016 70.7338 148.001 70.6922C147.914 70.4902 147.826 70.2882 147.745 70.0794C147.665 69.8706 147.564 69.6282 147.49 69.4059C147.493 69.3746 147.493 69.3429 147.49 69.3116C147.415 69.1029 147.341 68.9008 147.274 68.6988L147.234 68.5775C147.092 68.16 146.964 67.7357 146.856 67.3182C146.842 67.2787 146.831 67.2382 146.823 67.1969C146.769 66.9882 146.715 66.7861 146.668 66.5841V66.4763C146.621 66.2878 146.58 66.0924 146.54 65.8971C146.5 65.7018 146.452 65.4257 146.419 65.2237V65.089C146.385 64.8869 146.358 64.6849 146.331 64.4829C146.304 64.2808 146.284 64.0384 146.271 63.8498C146.271 63.8161 146.271 63.7824 146.271 63.7488C146.271 63.5467 146.271 63.3514 146.271 63.1561C146.274 63.1158 146.274 63.0752 146.271 63.0349C146.271 62.8329 146.271 62.6308 146.271 62.4355C146.269 61.8045 146.314 61.1742 146.405 60.5498C146.525 59.6461 146.779 58.7653 147.16 57.9368C147.234 57.7886 147.308 57.6404 147.388 57.499C149.207 54.2327 153.052 53.4582 157.49 56.0376C161.477 58.3408 164.966 62.7722 166.919 67.4865C167.054 67.7963 167.175 68.1128 167.296 68.4226C167.276 68.9547 167.431 69.4261 167.572 69.8908ZM157.47 70.2141C159.767 71.561 161.632 70.47 161.639 67.8367C161.564 66.3991 161.149 64.9998 160.429 63.7531C159.71 62.5065 158.705 61.448 157.497 60.6643C155.207 59.3174 153.335 60.3949 153.328 63.0349C153.405 64.473 153.82 65.8727 154.54 67.1202C155.26 68.3677 156.264 69.4277 157.47 70.2141Z" fill="url(#paint3_linear_970_1430)"/>
<path d="M125.039 70.8482L125.039 70.8483L184.972 105.428C185.391 105.7 185.739 106.067 185.988 106.499C186.238 106.931 186.382 107.416 186.409 107.915V114.454C186.409 114.904 186.258 115.146 186.085 115.246C185.911 115.347 185.619 115.358 185.213 115.133C185.212 115.132 185.212 115.132 185.211 115.132L125.282 80.5475C124.863 80.2752 124.515 79.908 124.266 79.4758C124.016 79.0436 123.872 78.5586 123.845 78.0602V71.5207C123.845 71.0801 124 70.837 124.18 70.7358C124.36 70.6338 124.654 70.6253 125.039 70.8482Z" fill="#FE5A59" fill-opacity="0.3" stroke="#FF5A5A" stroke-width="0.5"/>
<path d="M124.999 85.092L124.999 85.0921L184.932 119.685C185.35 119.957 185.698 120.324 185.948 120.757C186.197 121.189 186.341 121.674 186.368 122.172V128.718C186.368 129.164 186.218 129.405 186.045 129.504C185.871 129.604 185.578 129.615 185.172 129.39C185.172 129.39 185.171 129.389 185.171 129.389L125.241 94.7979C124.822 94.5265 124.473 94.1595 124.224 93.7272C123.974 93.2949 123.83 92.8096 123.805 92.3111V85.7713C123.805 85.3266 123.96 85.082 124.139 84.9802C124.32 84.8778 124.613 84.8691 124.999 85.092Z" fill="#FE5A59" fill-opacity="0.3" stroke="#FF5A5A" stroke-width="0.5"/>
<path d="M158.339 122.334C159.185 122.883 159.889 123.624 160.393 124.498C160.898 125.371 161.189 126.351 161.242 127.358V128.543C161.242 130.389 159.935 131.136 158.326 130.207L143.078 121.404C142.231 120.855 141.525 120.113 141.019 119.238C140.514 118.364 140.222 117.382 140.169 116.374V115.168C140.169 113.33 141.482 112.582 143.092 113.511L158.339 122.334Z" fill="url(#paint4_linear_970_1430)"/>
<path d="M103.054 121.492C103.054 121.492 97.8822 124.469 97.0942 138.1C97.7677 140.612 101.721 141.938 104.765 139.952C107.809 137.965 104.657 123.809 103.054 121.492Z" fill="url(#paint5_linear_970_1430)"/>
<path d="M129.346 136.207C129.346 136.207 141.186 130.934 142.775 130.038C144.365 129.142 145.564 125.856 146.143 125.162C146.722 124.469 149.423 122.873 149.328 123.573C149.234 124.273 147.833 125.56 147.833 125.56C148.353 126.431 148.754 127.369 149.025 128.348C149.227 129.439 147.732 131.628 146.937 132.227C146.143 132.826 144.244 133.022 144.244 133.022C144.244 133.022 134.593 139.494 132.997 139.588C131.4 139.682 129.144 138.793 129.346 136.207Z" fill="#FF9D6F"/>
<path style="mix-blend-mode:multiply" opacity="0.21" d="M115.17 218C128.389 218 139.105 211.632 139.105 203.776C139.105 195.921 128.389 189.553 115.17 189.553C101.951 189.553 91.2349 195.921 91.2349 203.776C91.2349 211.632 101.951 218 115.17 218Z" fill="url(#paint6_linear_970_1430)"/>
<path d="M105.263 200.699C105.263 200.699 104.96 202.955 105.371 203.877C105.714 204.374 106.239 204.716 106.832 204.831C107.425 204.945 108.039 204.823 108.543 204.49C109.629 203.601 110.658 202.643 111.62 201.621C111.62 201.621 114.9 199.877 115.21 198.927C115.52 197.978 114.388 197.183 113.466 197.392C112.543 197.601 109.876 199.237 108.65 199.237C107.425 199.237 105.654 199.581 105.263 200.699Z" fill="#113C7A"/>
<path d="M101.896 152.701C101.896 152.701 104.758 200.052 105.122 201.426C105.485 202.8 109.196 203.588 109.89 201.426C110.328 200.045 111.405 156.223 111.405 156.223L101.896 152.701Z" fill="#113C7A"/>
<path d="M114.732 203.527C114.653 203.596 114.591 203.681 114.548 203.776C114.505 203.872 114.483 203.975 114.483 204.079C114.483 204.753 114.483 206.181 114.873 206.773C115.285 207.298 115.873 207.655 116.528 207.779C117.183 207.903 117.861 207.785 118.436 207.447C119.783 206.726 123.824 203.669 124.679 202.995C125.089 202.661 125.38 202.202 125.507 201.689C125.551 201.518 125.532 201.337 125.454 201.179C125.376 201.021 125.245 200.896 125.083 200.827C124.326 200.444 123.456 200.344 122.632 200.544C121.285 201.002 119.574 202.47 117.729 202.389C116.624 202.389 115.558 202.794 114.732 203.527Z" fill="#113C7A"/>
<path d="M121.063 153.212C120.854 151.246 118.504 150.606 116.348 151.279C112.207 151.057 105.802 151.232 105.573 154.445C105.236 159.199 107.465 162.594 109.614 164.897C111.203 166.608 112.261 169.867 112.705 171.457C113.082 184.017 113.911 201.722 114.429 203.419C115.264 206.113 119.386 206.026 119.574 203.365C120.409 194.381 121.063 153.212 121.063 153.212Z" fill="#113C7A"/>
<path d="M121.076 154.694C120.591 157.125 113.668 158.344 109.627 157.691C105.586 157.038 101.216 155.058 101.364 150.364C101.364 150.364 100.751 131.608 100.751 127.917C100.817 125.583 101.629 123.331 103.068 121.492C103.068 121.492 105.337 118.899 112.463 120.361C112.463 120.361 118.268 121.62 120.942 125.917C120.942 125.917 122.787 130.631 122.174 140.47C121.561 150.31 121.076 154.694 121.076 154.694Z" fill="url(#paint7_linear_970_1430)"/>
<path d="M106.886 115.168C106.886 115.168 107.499 118.751 106.886 120.394C106.785 121.216 110.368 123.984 113.546 123.263C115.392 122.852 115.291 121.916 115.291 121.916C115.291 121.916 113.755 119.357 113.944 116.892C114.132 114.427 109.041 114.636 106.886 115.168Z" fill="#FF7C40"/>
<path d="M118.881 107.922C118.882 109.595 118.387 111.231 117.458 112.623C116.53 114.015 115.209 115.1 113.664 115.741C112.118 116.383 110.417 116.551 108.776 116.225C107.135 115.9 105.627 115.095 104.443 113.912C103.259 112.729 102.453 111.222 102.126 109.581C101.799 107.94 101.966 106.239 102.606 104.693C103.246 103.147 104.331 101.825 105.722 100.896C107.113 99.9659 108.749 99.4696 110.422 99.4696C112.664 99.4696 114.815 100.36 116.401 101.945C117.987 103.53 118.879 105.679 118.881 107.922Z" fill="#FF9D6F"/>
<path d="M118.881 108.487C118.881 108.487 118.982 116.96 117.136 118.67C115.291 120.381 112.456 117.067 107.93 116.01C103.398 114.845 111.6 106.036 111.6 106.036L118.881 108.487Z" fill="#FF9D6F"/>
<path d="M118.194 123.923C118.194 123.923 120.046 123.391 122.167 126.435C124.289 129.479 127.326 133.446 128.781 134.106C130.235 134.766 132.222 133.433 133.017 133.433C133.812 133.433 135.926 137.137 135.132 138.989C134.337 140.841 129.178 141.77 127.858 141.77C126.538 141.77 117.931 136.611 116.739 133.689C115.547 130.766 113.695 124.071 118.194 123.923Z" fill="url(#paint8_linear_970_1430)"/>
<path d="M131.825 133.864C132.034 133.399 132.369 133.003 132.794 132.722C133.218 132.441 133.714 132.286 134.223 132.274C136.075 132.146 138.189 135.716 138.055 137.702C137.92 139.689 135.017 140.746 134.35 140.214C133.684 139.682 135.004 138.362 131.825 133.864Z" fill="url(#paint9_linear_970_1430)"/>
<path d="M115.486 100.783C115.486 100.783 118.524 101.456 119.453 106.076C119.056 108.063 116.274 106.474 115.217 109.12C114.799 110.338 114.221 111.495 113.5 112.562L112.826 112.299C112.826 112.299 112.826 110.178 111.897 110.178C110.967 110.178 110.705 112.696 111.223 113.754C111.62 114.446 112.219 115.001 112.941 115.343C112.941 115.343 111.594 117.593 110.961 117.855C110.327 118.118 107.916 117.593 106.987 117.182C106.058 116.771 104.34 114.932 103.02 112.811C101.7 110.69 100.502 106.992 101.296 104.473C101.477 103.783 101.808 103.14 102.265 102.592C102.723 102.044 103.296 101.603 103.943 101.301C104.703 100.346 105.709 99.6148 106.852 99.1867C108.311 98.7139 109.864 98.6123 111.372 98.891C112.879 99.1697 114.293 99.8199 115.486 100.783Z" fill="#843837"/>
<path d="M116.941 122.132L114.732 120.899C114.732 120.899 109.088 120.367 107.061 119.047L106.004 120.556C106.535 121.434 107.268 122.172 108.142 122.71C109.015 123.248 110.005 123.569 111.028 123.647C114.645 123.997 116.321 122.59 116.321 122.59L116.941 122.132Z" fill="#CFDAE4"/>
<g opacity="0.67">
<path opacity="0.67" d="M216.44 55.0543V57.5326C216.439 57.8663 216.351 58.1939 216.183 58.4824C216.016 58.7709 215.775 59.0102 215.485 59.1761C215.196 59.342 214.868 59.4287 214.534 59.4275C214.2 59.4263 213.873 59.3372 213.585 59.1692L201.893 52.3873C201.605 52.2199 201.365 51.979 201.2 51.6893C201.034 51.3995 200.948 51.0711 200.95 50.7373V48.259C200.95 47.9255 201.037 47.5978 201.204 47.309C201.371 47.0202 201.611 46.7807 201.9 46.6145C202.189 46.4484 202.517 46.3617 202.851 46.3631C203.184 46.3644 203.511 46.4539 203.799 46.6225L215.491 53.4043C215.779 53.5724 216.019 53.8133 216.185 54.1027C216.352 54.3922 216.44 54.7203 216.44 55.0543Z" fill="#FF5A5A"/>
<path opacity="0.67" d="M253.426 88.7276V91.2127C253.426 91.546 253.338 91.8733 253.171 92.1618C253.005 92.4503 252.765 92.6898 252.476 92.8563C252.187 93.0229 251.86 93.1105 251.527 93.1104C251.194 93.1104 250.866 93.0226 250.578 92.856L201.852 64.7252C201.563 64.5576 201.323 64.3169 201.157 64.0273C200.99 63.7377 200.902 63.4093 200.903 63.0752V60.6171C200.904 60.2844 200.993 59.9579 201.16 59.6703C201.327 59.3828 201.567 59.1442 201.856 58.9785C202.144 58.8127 202.471 58.7257 202.804 58.7261C203.136 58.7264 203.463 58.8142 203.751 58.9805L252.47 87.1046C252.757 87.2685 252.996 87.5045 253.164 87.7892C253.331 88.0738 253.422 88.3973 253.426 88.7276Z" fill="#FF5A5A"/>
<g opacity="0.53">
<path opacity="0.53" d="M233.269 101.82V104.305C233.268 104.638 233.179 104.964 233.012 105.252C232.844 105.539 232.605 105.778 232.316 105.944C232.028 106.109 231.701 106.196 231.368 106.196C231.035 106.196 230.709 106.108 230.421 105.942L201.791 89.4078C201.502 89.2429 201.261 89.0037 201.094 88.7149C200.927 88.4261 200.84 88.0981 200.842 87.7646V85.2795C200.842 84.9462 200.93 84.6189 201.097 84.3304C201.264 84.0419 201.503 83.8024 201.792 83.6359C202.081 83.4693 202.408 83.3817 202.741 83.3818C203.075 83.3818 203.402 83.4696 203.691 83.6362L232.32 100.17C232.611 100.335 232.852 100.576 233.019 100.866C233.186 101.156 233.272 101.485 233.269 101.82Z" fill="#FF5A5A"/>
</g>
<path opacity="0.67" d="M245.836 96.7083V99.1934C245.836 99.5267 245.748 99.854 245.581 100.142C245.414 100.431 245.175 100.671 244.886 100.837C244.597 101.004 244.27 101.091 243.937 101.091C243.603 101.091 243.276 101.003 242.987 100.837L201.825 77.07C201.542 76.9004 201.308 76.6607 201.145 76.3739C200.982 76.0872 200.896 75.7632 200.896 75.4334V72.9483C200.897 72.6157 200.986 72.2892 201.153 72.0016C201.32 71.7141 201.56 71.4755 201.849 71.3098C202.137 71.144 202.464 71.057 202.797 71.0574C203.129 71.0577 203.456 71.1455 203.744 71.3118L244.907 95.0718C245.19 95.2403 245.425 95.4799 245.588 95.7668C245.751 96.0538 245.837 96.3783 245.836 96.7083Z" fill="#FF5A5A"/>
</g>
<g opacity="0.67">
<path opacity="0.67" d="M21.0191 37.3757V38.6553C21.0194 38.8269 21.065 38.9953 21.1511 39.1437C21.2373 39.2921 21.361 39.4152 21.5099 39.5005C21.6587 39.5859 21.8274 39.6305 21.999 39.6299C22.1706 39.6293 22.339 39.5835 22.4872 39.4971L28.5013 36.0085C28.6505 35.9232 28.7741 35.7995 28.8594 35.6503C28.9447 35.5011 28.9885 35.3318 28.9862 35.16V33.8804C28.9859 33.7088 28.9403 33.5403 28.8542 33.3919C28.768 33.2436 28.6443 33.1205 28.4954 33.0351C28.3466 32.9498 28.1779 32.9052 28.0063 32.9058C27.8347 32.9064 27.6663 32.9522 27.5181 33.0385L21.504 36.5338C21.3553 36.6181 21.232 36.7406 21.1467 36.8886C21.0614 37.0367 21.0174 37.2048 21.0191 37.3757Z" fill="#FF5A5A"/>
<path opacity="0.67" d="M1.98706 54.7042V55.9838C1.9874 56.1553 2.03294 56.3238 2.1191 56.4722C2.20525 56.6206 2.32899 56.7437 2.47784 56.829C2.62669 56.9144 2.7954 56.959 2.96698 56.9584C3.13857 56.9578 3.30697 56.912 3.45522 56.8256L28.5217 42.3528C28.6704 42.2669 28.7937 42.1431 28.8789 41.994C28.9641 41.845 29.0081 41.6759 29.0066 41.5042V40.2313C29.0054 40.06 28.9595 39.8919 28.8733 39.7438C28.7872 39.5956 28.6638 39.4726 28.5154 39.3868C28.367 39.3011 28.1988 39.2556 28.0275 39.2549C27.8561 39.2542 27.6875 39.2983 27.5384 39.3828L2.47196 53.8825C2.32761 53.9666 2.20724 54.0863 2.12234 54.2301C2.03745 54.374 1.99087 54.5372 1.98706 54.7042Z" fill="#FF5A5A"/>
<g opacity="0.53">
<path opacity="0.53" d="M12.3586 61.4388V62.7184C12.359 62.89 12.4045 63.0584 12.4907 63.2068C12.5768 63.3552 12.7006 63.4783 12.8494 63.5636C12.9983 63.649 13.167 63.6936 13.3386 63.693C13.5101 63.6924 13.6786 63.6466 13.8268 63.5602L28.5556 55.0543C28.7047 54.969 28.8284 54.8453 28.9136 54.6961C28.9989 54.5469 29.0427 54.3776 29.0405 54.2057V52.9262C29.0401 52.7546 28.9946 52.5861 28.9084 52.4377C28.8223 52.2893 28.6985 52.1663 28.5497 52.0809C28.4008 51.9956 28.2321 51.9509 28.0605 51.9515C27.8889 51.9521 27.7205 51.9979 27.5723 52.0843L12.8435 60.6172C12.6983 60.7002 12.5772 60.8196 12.4922 60.9637C12.4072 61.1078 12.3611 61.2715 12.3586 61.4388Z" fill="#FF5A5A"/>
</g>
<path opacity="0.67" d="M5.89315 58.8124V60.092C5.89348 60.2636 5.93903 60.432 6.02518 60.5804C6.11134 60.7288 6.23508 60.8519 6.38393 60.9372C6.53278 61.0226 6.70149 61.0672 6.87308 61.0666C7.04466 61.066 7.21306 61.0202 7.36131 60.9338L28.5352 48.7036C28.6842 48.6176 28.808 48.4939 28.8943 48.345C28.9806 48.1961 29.0263 48.0272 29.0268 47.8551V46.5822C29.027 46.411 28.9821 46.2428 28.8968 46.0944C28.8115 45.9461 28.6886 45.8227 28.5406 45.7368C28.3926 45.6508 28.2246 45.6053 28.0534 45.6047C27.8822 45.6042 27.7139 45.6486 27.5654 45.7336L6.37805 57.9638C6.22886 58.0491 6.10522 58.1728 6.01996 58.322C5.93469 58.4712 5.89091 58.6405 5.89315 58.8124Z" fill="#FF5A5A"/>
</g>
<g opacity="0.46">
<path opacity="0.46" d="M98.4408 37.5104C99.6934 38.326 100.736 39.4256 101.484 40.7199C102.231 42.0141 102.663 43.4665 102.744 44.959C102.744 47.7135 100.791 48.818 98.4138 47.4441L59.1843 24.7954C57.9283 23.9786 56.8836 22.876 56.1356 21.5778C55.3876 20.2797 54.9576 18.8228 54.8809 17.3266C54.8809 14.5923 56.8272 13.4878 59.2113 14.8617L98.4408 37.5104Z" fill="#FF5A5A"/>
</g>
<g opacity="0.46">
<path opacity="0.46" d="M247.156 157.435C248.028 158.002 248.753 158.766 249.272 159.666C249.792 160.566 250.091 161.576 250.146 162.614C250.146 164.527 248.799 165.308 247.136 164.338L219.867 148.599C218.996 148.03 218.272 147.263 217.753 146.36C217.235 145.458 216.937 144.446 216.884 143.407C216.884 141.508 218.231 140.713 219.887 141.696L247.156 157.435Z" fill="#FF5A5A"/>
</g>
<path d="M59.1709 129.082C60.1811 129.661 60.1811 130.604 59.1709 131.19L25.6794 150.66C25.1153 150.944 24.4926 151.092 23.861 151.092C23.2294 151.092 22.6066 150.944 22.0426 150.66L1.38062 138.739C0.377149 138.16 0.370414 137.217 1.38062 136.638L34.8722 117.188C35.4348 116.9 36.0581 116.749 36.6906 116.749C37.323 116.749 37.9463 116.9 38.5089 117.188L59.1709 129.082Z" fill="url(#paint10_linear_970_1430)"/>
<g style="mix-blend-mode:multiply" opacity="0.21">
<path style="mix-blend-mode:multiply" opacity="0.21" d="M54.4859 199.037C68.0656 198.999 79.0563 192.591 79.0344 184.725C79.0124 176.858 67.9861 170.511 54.4063 170.549C40.8266 170.587 29.8359 176.995 29.8579 184.862C29.8799 192.728 40.9062 199.075 54.4859 199.037Z" fill="url(#paint11_linear_970_1430)"/>
</g>
<path d="M48.8334 187.398C48.8334 187.398 44.4087 188.556 42.6712 188.556C40.9336 188.556 42.6712 190.287 45.5604 190.475C48.4495 190.664 51.1434 190.866 51.7226 190.092C52.3018 189.317 51.5946 187.142 51.5946 187.142L48.8334 187.398Z" fill="#5155D4"/>
<path d="M61.1576 183.357C61.1576 183.357 56.7262 184.508 54.9954 184.508C53.2646 184.508 54.9954 186.239 57.8846 186.435C60.7738 186.63 63.4676 186.818 64.0468 186.051C64.626 185.283 63.9189 183.094 63.9189 183.094L61.1576 183.357Z" fill="#5155D4"/>
<path d="M62.1208 135.54C62.1208 135.54 63.7236 179.565 63.9796 184.185C63.5816 184.484 63.1195 184.687 62.6298 184.777C62.14 184.867 61.6361 184.842 61.1577 184.704C61.1577 184.704 55.9585 155.819 55.1908 148.377C54.423 140.935 53.1367 138.362 53.1367 138.362L62.1208 135.54Z" fill="#343996"/>
<path d="M45.6879 138.107C45.6879 138.107 44.1457 163.523 48.7724 188.165C48.7724 188.165 50.3079 188.94 51.5942 187.142C51.5942 187.142 54.4161 144.04 55.1906 137.851C55.9651 131.661 47.742 136.82 45.6879 138.107Z" fill="#343996"/>
<path d="M52.618 157.597C52.618 157.597 55.1906 150.411 57.5006 146.558C59.8106 142.706 59.2988 137.056 59.2988 137.056L50.5437 137.83L52.618 157.597Z" fill="#343996"/>
<path d="M43.7285 112.979L36.1048 109.282C36.1048 109.282 33.7881 106.965 33.2157 106.507C32.6432 106.049 28.8179 105.12 28.1242 105.234C27.4306 105.349 26.1644 106.393 26.5079 106.622C26.8514 106.851 30.0908 108.588 30.2053 109.282C30.3197 109.976 29.0536 110.898 29.5318 111.363C30.0099 111.828 31.0336 110.898 31.7273 110.898C32.6605 111.091 33.5656 111.401 34.4212 111.821L41.8293 116.098L43.7285 112.979Z" fill="#FF9D6F"/>
<path d="M59.9994 105.564C59.9994 105.564 58.5918 104.022 56.2818 106.979C53.9718 109.935 52.0592 114.293 48.8333 113.909C45.6073 113.525 40.361 110.952 40.361 110.952C40.361 110.952 38.051 112.494 38.4349 114.804C38.4349 114.804 45.8835 120.327 50.8873 120.071C55.8912 119.815 61.2857 114.683 62.444 111.08C63.6024 107.477 59.9994 105.564 59.9994 105.564Z" fill="#FF3D9D"/>
<path d="M44.5635 138.066C45.0215 140.363 51.5811 141.514 55.4199 140.901C59.2586 140.288 63.387 138.409 63.2523 133.958C63.2523 133.958 63.8315 116.185 63.8315 112.69C63.7649 110.487 62.9956 108.363 61.636 106.629C61.636 106.629 59.4876 104.17 52.7327 105.551C52.7327 105.551 47.2305 106.75 44.705 110.818C44.705 110.818 42.954 115.283 43.5399 124.61C44.1258 133.938 44.5635 138.066 44.5635 138.066Z" fill="#FF3D9D"/>
<path d="M58.0057 100.588C58.0057 100.588 57.4265 103.989 58.0057 105.537C58.1067 106.319 54.7057 108.939 51.6953 108.231C49.9443 107.841 50.0453 106.972 50.0453 106.972C50.0453 106.972 51.5 104.541 51.3047 102.211C51.1094 99.8804 55.9651 100.103 58.0057 100.588Z" fill="#FF7C40"/>
<path d="M46.6714 93.7384C46.6701 95.3237 47.139 96.8739 48.0188 98.1927C48.8986 99.5115 50.1498 100.54 51.6141 101.147C53.0784 101.755 54.69 101.915 56.245 101.606C57.8001 101.298 59.2287 100.535 60.3502 99.4144C61.4717 98.2939 62.2357 96.8659 62.5454 95.3111C62.8552 93.7563 62.6969 92.1445 62.0905 90.6797C61.4841 89.2149 60.4569 87.9629 59.1389 87.082C57.8208 86.201 56.271 85.7308 54.6857 85.7308C52.5613 85.7308 50.5239 86.5743 49.0211 88.0758C47.5183 89.5773 46.6732 91.614 46.6714 93.7384Z" fill="#FF9D6F"/>
<path d="M46.6716 94.2906C46.6716 94.2906 46.5773 102.312 48.3215 103.935C50.0658 105.558 52.753 102.419 57.0766 101.409C61.4003 100.399 53.6015 91.9807 53.6015 91.9807L46.6716 94.2906Z" fill="#FF9D6F"/>
<path d="M36.7312 120.556C36.7312 120.556 25.5112 115.559 24.0026 114.71C22.4941 113.862 21.3627 110.75 20.7969 110.09C20.2312 109.43 17.6922 107.922 17.7798 108.582C17.8673 109.242 19.1941 110.467 19.1941 110.467C18.7021 111.294 18.3217 112.181 18.0627 113.107C17.8741 114.144 19.2884 116.219 20.0427 116.784C20.8332 117.201 21.6984 117.457 22.5884 117.539C22.5884 117.539 31.7341 123.667 33.2426 123.762C34.7512 123.856 36.9198 122.987 36.7312 120.556Z" fill="#FF9D6F"/>
<path d="M46.7185 110.38C46.7185 110.38 45.3042 108.838 42.9942 111.787C40.6842 114.737 38.7581 119.108 35.5456 118.724C32.3332 118.34 27.0734 115.768 27.0734 115.768C27.0734 115.768 24.7634 117.31 25.1473 119.62C25.1473 119.62 32.5959 125.142 37.5997 124.88C42.6036 124.617 47.9981 119.492 49.1564 115.895C50.3148 112.299 46.7185 110.38 46.7185 110.38Z" fill="#FF3D9D"/>
<path d="M49.8638 86.9767C49.8638 86.9767 46.9814 87.6031 46.0991 91.9941C46.4763 93.8731 49.1095 92.3712 50.1399 94.8765C50.5373 96.0301 51.0853 97.1261 51.7697 98.1361L52.3961 97.8802C52.3961 97.8802 52.3961 95.8598 53.2716 95.8598C54.1471 95.8598 54.403 98.2371 53.8979 99.2271C53.5214 99.8846 52.9526 100.411 52.2681 100.736C52.2681 100.736 53.5207 102.864 54.1471 103.113C54.7734 103.362 57.0363 102.864 57.9118 102.487C58.7873 102.11 60.4171 100.359 61.6697 98.3516C62.9224 96.3447 64.0538 92.8359 63.2995 90.4518C63.1279 89.798 62.8144 89.19 62.3815 88.6709C61.9485 88.1518 61.4066 87.7343 60.7942 87.4482C60.0755 86.5353 59.1206 85.8366 58.033 85.4278C56.6496 84.9886 55.1788 84.9002 53.7528 85.1706C52.3268 85.441 50.9904 86.0616 49.8638 86.9767Z" fill="#843837"/>
<path d="M49.2171 92.2702C49.8007 93.0618 50.1916 93.9787 50.3588 94.9479C50.526 95.917 50.4648 96.9119 50.1802 97.8533C49.2171 101.126 50.564 101.126 51.9177 105.362C53.2714 109.599 49.4124 114.609 53.0693 120.771C56.7263 126.934 66.5387 126.159 70.9769 119.997C75.415 113.835 68.4716 109.41 68.283 103.834C68.0944 98.2573 72.5191 94.9708 67.5085 91.1253C62.4979 87.2798 60.3899 83.0437 54.2277 84.7678C48.0655 86.4919 46.5232 89.5763 49.2171 92.2702Z" fill="#843837"/>
<defs>
<linearGradient id="paint0_linear_970_1430" x1="175.5" y1="35" x2="167" y2="49.5" gradientUnits="userSpaceOnUse">
<stop offset="0.434504" stop-color="#FF5A5A"/>
<stop offset="1" stop-color="#FFE4E4"/>
</linearGradient>
<linearGradient id="paint1_linear_970_1430" x1="233.647" y1="129.109" x2="222.076" y2="129.109" gradientUnits="userSpaceOnUse">
<stop stop-color="#FF5A5A"/>
<stop offset="1" stop-color="#FFE4E4"/>
</linearGradient>
<linearGradient id="paint2_linear_970_1430" x1="85.7862" y1="92.9505" x2="229.026" y2="92.9505" gradientUnits="userSpaceOnUse">
<stop stop-color="#FF5A5A"/>
<stop offset="0.166667" stop-color="#FF5A5A"/>
<stop offset="0.24" stop-color="#FE5A59"/>
<stop offset="0.6" stop-color="#FF7E7E"/>
<stop offset="0.94" stop-color="#FF9696"/>
</linearGradient>
<linearGradient id="paint3_linear_970_1430" x1="6756.87" y1="4055.46" x2="7155.54" y2="7996.02" gradientUnits="userSpaceOnUse">
<stop stop-color="#FF5A5A"/>
<stop offset="1" stop-color="#45F7FF"/>
</linearGradient>
<linearGradient id="paint4_linear_970_1430" x1="6303.34" y1="4412.95" x2="6303.34" y2="5258.47" gradientUnits="userSpaceOnUse">
<stop stop-color="#FF5A5A"/>
<stop offset="0.24" stop-color="#8665FF"/>
<stop offset="0.6" stop-color="#9978FF"/>
<stop offset="0.94" stop-color="#B391FF"/>
</linearGradient>
<linearGradient id="paint5_linear_970_1430" x1="-4541.56" y1="5886.38" x2="-4935.85" y2="5728.04" gradientUnits="userSpaceOnUse">
<stop stop-color="#1AE5FF"/>
<stop offset="0.26" stop-color="#64E8F9"/>
<stop offset="0.7" stop-color="#EAEEEE"/>
</linearGradient>
<linearGradient id="paint6_linear_970_1430" x1="5419.89" y1="11328.7" x2="8822.02" y2="11328.7" gradientUnits="userSpaceOnUse">
<stop stop-color="#5155D4"/>
<stop offset="1" stop-color="#45F7FF"/>
</linearGradient>
<linearGradient id="paint7_linear_970_1430" x1="-11488.2" y1="13917.6" x2="-11052.4" y2="8752.96" gradientUnits="userSpaceOnUse">
<stop stop-color="#1AE5FF"/>
<stop offset="0.26" stop-color="#64E8F9"/>
<stop offset="0.7" stop-color="#EAEEEE"/>
</linearGradient>
<linearGradient id="paint8_linear_970_1430" x1="-10229.4" y1="6581.29" x2="-10124.5" y2="4134.91" gradientUnits="userSpaceOnUse">
<stop stop-color="#1AE5FF"/>
<stop offset="0.26" stop-color="#64E8F9"/>
<stop offset="0.7" stop-color="#EAEEEE"/>
</linearGradient>
<linearGradient id="paint9_linear_970_1430" x1="-2897.4" y1="2651.24" x2="-2862.21" y2="2444.09" gradientUnits="userSpaceOnUse">
<stop stop-color="#1AE5FF"/>
<stop offset="0.26" stop-color="#64E8F9"/>
<stop offset="0.7" stop-color="#EAEEEE"/>
</linearGradient>
<linearGradient id="paint10_linear_970_1430" x1="10.6812" y1="151.529" x2="47.5132" y2="118.401" gradientUnits="userSpaceOnUse">
<stop stop-color="#FF5A5A"/>
<stop offset="1" stop-color="white"/>
</linearGradient>
<linearGradient id="paint11_linear_970_1430" x1="5589.29" y1="10522.1" x2="9180.17" y2="10522.1" gradientUnits="userSpaceOnUse">
<stop stop-color="#5155D4"/>
<stop offset="1" stop-color="#45F7FF"/>
</linearGradient>
</defs>
</svg>
