<?xml version="1.0" encoding="utf-8"?>
<!-- Generator: Adobe Illustrator 18.1.1, SVG Export Plug-In . SVG Version: 6.00 Build 0)  -->
<svg version="1.0" xmlns="http://www.w3.org/2000/svg" xmlns:xlink="http://www.w3.org/1999/xlink" x="0px" y="0px"
	 viewBox="0 0 32 32" enable-background="new 0 0 32 32" xml:space="preserve">
<g id="Guides">
</g>
<g id="_x32_0">
</g>
<g id="_x31_9">
</g>
<g id="_x31_8">
</g>
<g id="_x31_7">
</g>
<g id="_x31_6">
</g>
<g id="_x31_5">
	<path d="M10,12c0-1.6543-1.3457-3-3-3s-3,1.3457-3,3s1.3457,3,3,3S10,13.6543,10,12z M7,13c-0.5518,0-1-0.4482-1-1s0.4482-1,1-1
		s1,0.4482,1,1S7.5518,13,7,13z"/>
	<path d="M8.0352,15H7H5.9648C3.7783,15,2,16.7783,2,18.9648V21c0,0.5527,0.4473,1,1,1s1-0.4473,1-1v-2.0352
		C4,17.8818,4.8818,17,5.9648,17h2.0703C9.1182,17,10,17.8818,10,18.9648V21c0,0.5527,0.4473,1,1,1s1-0.4473,1-1v-2.0352
		C12,16.7783,10.2217,15,8.0352,15z"/>
	<path d="M29,3H14c-0.5527,0-1,0.4473-1,1v7c0,0.5527,0.4473,1,1,1s1-0.4473,1-1V5h13v22H15v-6c0-0.5527-0.4473-1-1-1s-1,0.4473-1,1
		v7c0,0.5527,0.4473,1,1,1h15c0.5527,0,1-0.4473,1-1V4C30,3.4473,29.5527,3,29,3z"/>
	<path d="M16.707,13.293c-0.3906-0.3906-1.0234-0.3906-1.4141,0l-2,2c-0.3906,0.3906-0.3906,1.0234,0,1.4141l2,2
		C15.4883,18.9023,15.7441,19,16,19s0.5117-0.0977,0.707-0.293c0.3906-0.3906,0.3906-1.0234,0-1.4141L16.4141,17H23
		c0.5527,0,1-0.4473,1-1s-0.4473-1-1-1h-6.5859l0.293-0.293C17.0977,14.3164,17.0977,13.6836,16.707,13.293z"/>
</g>
<g id="_x31_4">
</g>
<g id="_x31_3">
</g>
<g id="_x31_2">
</g>
<g id="_x31_1">
</g>
<g id="_x31_0">
</g>
<g id="_x30_9">
</g>
<g id="_x30_8">
</g>
<g id="_x30_7">
</g>
<g id="_x30_6">
</g>
<g id="_x30_5">
</g>
<g id="_x30_4">
</g>
<g id="_x30_3">
</g>
<g id="_x30_2">
</g>
<g id="_x30_1">
</g>
</svg>
